HIERARCHY
ROOT Hips
{
	OFFSET	0.00	0.00	0.00
	CHANNELS 6 Xposition Yposition Zposition Zrotation Xrotation Yrotation
	JOINT LeftUpLeg
	{
		OFFSET	 0.126116	-0.014019	-0.065224
		CHANNELS 3 Zrotation Xrotation Yrotation
		JOINT LeftLeg
		{
			OFFSET	 0.000000	 0.000000	 0.569914
			CHANNELS 3 Zrotation Xrotation Yrotation
			JOINT LeftFoot
			{
				OFFSET	 0.000000	 0.000000	 0.544423
				CHANNELS 3 Zrotation Xrotation Yrotation
				JOINT LeftToeBase
				{
					OFFSET	 0.000000	 0.000000	 0.207117
					CHANNELS 3 Zrotation Xrotation Yrotation
					End Site
					{
						OFFSET	 0.000000	 0.000000	 0.207117
					}
				}
			}
		}
	}
	JOINT RightUpLeg
	{
		OFFSET	-0.124023	-0.008373	-0.065224
		CHANNELS 3 Zrotation Xrotation Yrotation
		JOINT RightLeg
		{
			OFFSET	 0.000000	 0.000000	 0.570047
			CHANNELS 3 Zrotation Xrotation Yrotation
			JOINT RightFoot
			{
				OFFSET	 0.000000	 0.000000	 0.544354
				CHANNELS 3 Zrotation Xrotation Yrotation
				JOINT RightToeBase
				{
					OFFSET	 0.000000	 0.000000	 0.207540
					CHANNELS 3 Zrotation Xrotation Yrotation
					End Site
					{
						OFFSET	 0.000000	 0.000000	 0.207540
					}
				}
			}
		}
	}
	JOINT Spine
	{
		OFFSET	 0.000184	-0.007763	 0.117403
		CHANNELS 3 Zrotation Xrotation Yrotation
		JOINT Spine1
		{
			OFFSET	 0.000000	 0.000000	 0.137269
			CHANNELS 3 Zrotation Xrotation Yrotation
			JOINT Spine2
			{
				OFFSET	 0.000000	 0.000000	 0.156879
				CHANNELS 3 Zrotation Xrotation Yrotation
				JOINT LeftShoulder
				{
					OFFSET	 0.080501	-0.002496	 0.160144
					CHANNELS 3 Zrotation Xrotation Yrotation
					JOINT LeftArm
					{
						OFFSET	 0.000000	 0.000000	 0.164363
						CHANNELS 3 Zrotation Xrotation Yrotation
						JOINT LeftForeArm
						{
							OFFSET	 0.000000	 0.000000	 0.364576
							CHANNELS 3 Zrotation Xrotation Yrotation
							JOINT LeftHand
							{
								OFFSET	 0.000000	 0.000000	 0.360812
								CHANNELS 3 Zrotation Xrotation Yrotation
								JOINT LeftHandIndex1
								{
									OFFSET	 0.000000	 0.000000	 0.086006
									CHANNELS 3 Zrotation Xrotation Yrotation
									JOINT LeftHandIndex2
									{
										OFFSET	 0.000000	 0.000000	 0.047236
										CHANNELS 3 Zrotation Xrotation Yrotation
										JOINT LeftHandIndex3
										{
											OFFSET	-0.004284	-0.000551	 0.038166
											CHANNELS 3 Zrotation Xrotation Yrotation
											End Site
											{
												OFFSET	-0.004284	-0.000551	 0.038166
											}
										}
									}
								}
							}
						}
					}
				}
				JOINT Neck
				{
					OFFSET	 0.000000	 0.000000	 0.176489
					CHANNELS 3 Zrotation Xrotation Yrotation
					JOINT Head
					{
						OFFSET	 0.000000	-0.001747	 0.077940
						CHANNELS 3 Zrotation Xrotation Yrotation
						End Site
						{
							OFFSET	 0.000000	-0.001747	 0.077940
						}
					}
				}
				JOINT RightShoulder
				{
					OFFSET	-0.080363	 0.000306	 0.159706
					CHANNELS 3 Zrotation Xrotation Yrotation
					JOINT RightArm
					{
						OFFSET	 0.000000	 0.000000	 0.164196
						CHANNELS 3 Zrotation Xrotation Yrotation
						JOINT RightForeArm
						{
							OFFSET	 0.000000	 0.000000	 0.365611
							CHANNELS 3 Zrotation Xrotation Yrotation
							JOINT RightHand
							{
								OFFSET	 0.000000	 0.000000	 0.360648
								CHANNELS 3 Zrotation Xrotation Yrotation
								JOINT RightHandIndex1
								{
									OFFSET	 0.000000	 0.000000	 0.069977
									CHANNELS 3 Zrotation Xrotation Yrotation
									JOINT RightHandIndex2
									{
										OFFSET	 0.000000	 0.000000	 0.052305
										CHANNELS 3 Zrotation Xrotation Yrotation
										JOINT RightHandIndex3
										{
											OFFSET	 0.009002	-0.000782	 0.042196
											CHANNELS 3 Zrotation Xrotation Yrotation
											End Site
											{
												OFFSET	 0.009002	-0.000782	 0.042196
											}
										}
									}
								}
							}
						}
					}
				}
			}
		}
	}
}
MOTION
Frames:    13
Frame Time: 0.03333334
-0.000122	 0.051720	 1.225896	-0.003003	 0.008308	 0.063465	-6.265273	-13.112760	 179.304000	 0.817740	-35.013190	-2.309728	-21.885440	 82.418770	 16.068900	-2.385833	 28.452760	 0.000004	 6.202734	-14.776800	-179.256500	-0.795520	-35.440910	 2.303474	 19.545820	 81.305630	-13.939120	 2.384658	 28.388730	 0.000004	-2.819322	 2.672859	 0.167915	-0.611939	 3.802722	-0.282051	 1.882496	-4.841132	 0.436187	-91.776170	 78.527430	 180.000000	 65.780750	 45.407340	-49.428260	-8.168664	 0.190361	-0.474883	-28.543260	 2.796913	-4.253637	-2.635965	 4.993658	 6.788941	-5.165319	 0.784187	 3.516649	-5.225038	 0.466231	 0.424329	-0.000002	-3.783157	-0.089647	 1.827589	 4.953283	-0.079068	 89.782210	 78.203870	 179.999900	 8.927442	 13.448590	 85.742810	-33.764550	-4.889128	 14.619880	 3.783740	 2.203929	-6.157105	 6.112037	 4.509576	-0.364401	 4.968462	 1.518543	-9.347576	 5.168945	 0.703820	 2.021906
-0.000289	 0.054009	 1.226696	-0.000593	 0.011960	 0.024101	-6.260024	-13.008930	 179.324900	 0.832025	-34.721070	-2.284743	-21.379600	 82.251820	 15.561620	-2.385833	 28.452760	 0.000004	 6.215745	-14.804540	-179.198300	-0.805180	-35.244300	 2.286774	 19.088760	 81.091990	-13.483760	 2.384658	 28.388730	 0.000004	-1.814437	 2.670339	 0.094953	-0.084036	 3.805594	-0.038948	 0.281447	-4.864898	 0.064901	-91.776180	 78.527450	 180.000000	 65.985150	 45.374490	-49.638310	-8.168781	 0.190161	-0.474426	-28.548650	 2.796168	-4.254475	-2.635965	 4.993658	 6.788941	-5.165319	 0.784187	 3.516649	-5.225038	 0.466231	 0.424329	-0.000002	-3.783157	-0.089647	 0.277795	 4.982818	-0.012101	 89.782140	 78.203850	 180.000000	 8.984657	 13.703800	 85.787660	-33.933400	-4.925604	 14.584400	 3.823941	 2.090785	-6.222824	 6.112037	 4.509576	-0.364401	 4.968462	 1.518543	-9.347576	 5.168945	 0.703820	 2.021906
-0.000431	 0.056267	 1.227412	 0.001907	 0.010827	-0.027481	-6.251523	-12.909160	 179.361400	 0.845278	-34.446030	-2.261384	-20.910850	 82.093680	 15.090930	-2.385833	 28.452760	 0.000004	 6.231191	-14.833150	-179.130700	-0.813903	-35.065120	 2.271626	 18.665690	 80.888110	-13.061860	 2.384658	 28.388730	 0.000004	-0.814186	 2.675852	 0.027721	 0.445481	 3.799669	 0.218939	-1.327478	-4.846312	-0.314679	-91.776160	 78.527420	 180.000000	 66.238960	 45.319690	-49.921260	-8.168527	 0.190343	-0.474967	-28.565140	 2.793961	-4.257128	-2.635965	 4.993658	 6.788941	-5.165319	 0.784187	 3.516649	-5.225038	 0.466231	 0.424329	-0.000002	-3.783157	-0.089647	-1.278869	 4.968999	 0.055478	 89.782170	 78.203890	 179.999900	 9.040483	 13.935670	 85.834270	-34.108470	-4.961582	 14.543310	 3.438821	 2.196049	-6.264156	 6.112037	 4.509576	-0.364401	 4.968462	 1.518543	-9.347576	 5.168945	 0.703820	 2.021906
-0.000539	 0.058536	 1.228074	 0.004093	 0.008378	-0.079619	-6.242556	-12.816060	 179.400000	 0.857594	-34.187200	-2.239540	-20.479590	 81.942950	 14.657670	-2.385833	 28.452760	 0.000004	 6.247173	-14.867230	-179.063300	-0.822003	-34.897260	 2.257495	 18.271270	 80.687840	-12.668780	 2.384658	 28.388730	 0.000004	 0.128416	 2.689297	-0.035710	 0.950369	 3.778603	 0.467924	-2.862441	-4.784925	-0.676080	-91.776200	 78.527450	 180.000000	 66.565000	 45.259470	-50.312580	-8.168724	 0.189993	-0.473944	-28.594150	 2.790138	-4.261868	-2.635965	 4.993658	 6.788941	-5.165319	 0.784187	 3.516649	-5.225038	 0.466231	 0.424329	-0.000002	-3.783157	-0.089647	-2.765979	 4.915534	 0.118731	 89.782030	 78.203870	-180.000000	 9.000259	 14.466740	 85.896000	-33.952640	-4.870215	 14.412110	 2.318529	 2.461674	-6.240461	 6.112037	 4.509576	-0.364401	 4.968462	 1.518543	-9.347576	 5.168945	 0.703820	 2.021906
-0.000573	 0.060748	 1.228545	 0.003597	 0.006061	-0.118082	-6.234203	-12.757070	 179.428500	 0.866221	-34.003930	-2.224153	-20.169190	 81.828800	 14.346050	-2.385833	 28.452760	 0.000004	 6.263200	-14.927540	-179.010100	-0.827474	-34.783120	 2.247918	 17.964790	 80.513950	-12.365150	 2.384658	 28.388730	 0.000004	 0.929008	 2.705482	-0.034540	 1.392462	 3.745164	 0.557799	-4.184161	-4.699068	-0.926355	-91.776100	 78.527470	 179.999900	 66.962920	 45.223590	-50.817490	-8.168817	 0.190968	-0.476473	-28.636060	 2.784558	-4.268585	-2.635965	 4.993658	 6.788941	-5.165319	 0.784187	 3.516649	-5.225038	 0.466231	 0.424329	-0.000002	-3.783157	-0.089647	-4.054504	 4.838872	 0.171369	 89.782170	 78.203870	 179.999900	 8.961658	 16.019590	 86.232800	-32.943670	-4.363257	 13.748500	 1.690122	 2.273181	-6.163385	 6.112037	 4.509576	-0.364401	 4.968462	 1.518543	-9.347576	 5.168945	 0.703820	 2.021906
-0.000598	 0.063083	 1.229328	 0.002711	 0.002732	-0.151328	-6.225776	-12.646790	 179.449100	 0.879692	-33.714300	-2.199972	-19.707310	 81.662680	 13.880870	-2.385833	 28.452760	 0.000004	 6.277394	-14.936490	-178.957800	-0.838407	-34.553100	 2.228701	 17.536270	 80.278860	-11.937790	 2.384658	 28.388730	 0.000004	 1.572186	 2.725920	-0.067239	 1.757748	 3.703517	 0.695884	-5.285307	-4.596914	-1.159977	-91.776170	 78.527470	 180.000000	 67.476170	 45.226220	-51.499080	-8.168613	 0.190637	-0.475634	-28.689130	 2.777480	-4.277158	-2.635965	 4.993658	 6.788941	-5.165319	 0.784187	 3.516649	-5.225038	 0.466231	 0.424329	-0.000002	-3.783157	-0.089647	-5.129141	 4.755792	 0.213119	 89.782160	 78.203870	 180.000000	 7.284084	 18.474540	 85.116920	-30.811280	-4.210193	 15.180260	 2.564638	 1.370966	-6.036294	 6.112037	 4.509576	-0.364401	 4.968462	 1.518543	-9.347576	 5.168945	 0.703820	 2.021906
-0.000649	 0.065127	 1.230521	 0.001967	 0.000059	-0.172153	-6.207510	-12.524280	 179.456600	 0.893699	-33.408680	-2.174636	-19.210090	 81.494130	 13.391400	-2.385833	 28.452760	 0.000004	 6.291915	-14.851640	-178.914500	-0.856512	-34.166340	 2.196627	 17.007560	 79.986020	-11.400760	 2.384658	 28.388730	 0.000004	 1.941393	 2.742366	-0.087621	 1.981564	 3.668043	 0.780872	-5.960091	-4.516260	-1.300594	-91.776190	 78.527450	-180.000000	 67.983190	 45.257970	-52.185030	-8.168873	 0.190089	-0.474270	-28.735680	 2.771322	-4.284684	-2.635965	 4.993658	 6.788941	-5.165319	 0.784187	 3.516649	-5.225038	 0.466231	 0.424329	-0.000002	-3.783157	-0.089647	-5.789835	 4.698725	 0.237727	 89.782160	 78.203900	 179.999900	 3.007219	 20.775300	 84.801790	-28.722540	-3.440354	 14.513140	 4.332494	 0.262519	-5.805475	 6.112037	 4.509576	-0.364401	 4.968462	 1.518543	-9.347576	 5.168945	 0.703820	 2.021906
-0.000704	 0.067698	 1.232188	 0.002398	-0.000932	-0.186692	-6.204440	-12.470720	 179.461300	 0.901660	-33.232940	-2.160142	-18.930740	 81.380030	 13.111890	-2.385833	 28.452760	 0.000004	 6.297357	-14.716800	-178.868100	-0.881799	-33.613290	 2.151271	 16.306930	 79.584560	-10.696320	 2.384658	 28.388730	 0.000004	 2.165802	 2.757606	-0.104175	 2.145941	 3.628000	 0.846651	-6.458075	-4.436250	-1.403133	-91.776250	 78.527450	-180.000000	 68.748280	 45.355490	-53.264680	-8.168550	 0.189963	-0.474011	-28.795820	 2.763330	-4.294383	-2.635965	 4.993658	 6.788941	-5.165319	 0.784187	 3.516649	-5.225038	 0.466231	 0.424329	-0.000002	-3.783157	-0.089647	-6.279067	 4.659040	 0.255674	 89.782070	 78.203870	-180.000000	-4.198060	 24.260340	 81.877230	-25.755320	-2.814574	 15.434560	 7.383432	-1.295232	-5.220922	 6.112037	 4.509576	-0.364401	 4.968462	 1.518543	-9.347576	 5.168945	 0.703820	 2.021906
-0.000711	 0.069846	 1.233390	 0.002670	-0.001327	-0.188409	-6.204618	-12.428380	 179.455300	 0.907977	-33.092420	-2.148598	-18.709550	 81.287630	 12.889820	-2.385833	 28.452760	 0.000004	 6.299622	-14.631000	-178.840700	-0.900087	-33.203820	 2.118065	 15.813800	 79.273610	-10.201600	 2.384658	 28.388730	 0.000004	 2.144776	 2.790519	-0.112605	 2.179821	 3.516171	 0.866810	-6.562634	-4.286405	-1.415186	-91.776150	 78.527470	 180.000000	 69.450620	 45.471940	-54.345480	-8.168490	 0.189752	-0.473458	-28.846340	 2.756624	-4.302558	-2.635965	 4.993658	 6.788941	-5.165319	 0.784187	 3.516649	-5.225038	 0.466231	 0.424329	-0.000002	-3.783157	-0.089647	-6.388166	 4.712104	 0.263092	 89.782160	 78.203850	 179.999900	-11.758620	 26.363980	 78.507060	-23.200350	-2.098742	 15.486030	 9.623728	-2.354095	-4.405771	 6.112037	 4.509576	-0.364401	 4.968462	 1.518543	-9.347576	 5.168945	 0.703820	 2.021906
-0.000678	 0.072219	 1.234167	 0.003653	-0.001938	-0.171527	-6.209739	-12.389270	 179.431400	 0.913967	-32.958140	-2.137603	-18.493000	 81.195870	 12.672020	-2.385833	 28.452760	 0.000004	 6.299792	-14.644530	-178.835500	-0.910132	-32.975210	 2.099663	 15.506320	 79.039890	-9.896516	 2.384658	 28.388730	 0.000004	 1.912901	 3.011158	-0.141426	 2.101322	 2.742394	 0.881939	-6.335814	-3.308877	-1.299216	-91.776170	 78.527470	 180.000000	 70.003540	 45.510220	-55.698430	-8.168741	 0.189818	-0.473598	-28.900460	 2.749471	-4.311348	-2.635965	 4.993658	 6.788941	-5.165319	 0.784187	 3.516649	-5.225038	 0.466231	 0.424329	-0.000002	-3.783157	-0.089647	-6.210265	 5.203275	 0.282445	 89.782100	 78.203900	 180.000000	-21.383850	 28.147430	 74.341830	-20.021130	-1.196970	 15.354640	 11.720680	-3.216536	-3.102935	 6.112037	 4.509576	-0.364401	 4.968462	 1.518543	-9.347576	 5.168945	 0.703820	 2.021906
-0.000621	 0.074482	 1.235341	 0.005220	 0.000722	-0.143627	-6.231907	-12.347320	 179.395700	 0.920379	-32.813480	-2.125794	-18.308870	 81.096710	 12.473530	-2.385833	 28.452760	 0.000004	 6.289801	-14.669270	-178.840000	-0.919570	-32.758060	 2.082270	 15.209220	 78.810970	-9.609373	 2.384658	 28.388730	 0.000004	 1.451013	 3.218293	-0.154734	 1.911059	 2.001223	 0.843913	-5.767507	-2.394217	-1.125857	-91.776130	 78.527450	 180.000000	 70.590290	 45.566730	-57.072220	-8.168614	 0.189891	-0.473811	-28.953130	 2.742497	-4.319876	-2.635965	 4.993658	 6.788941	-5.165319	 0.784187	 3.516649	-5.225038	 0.466231	 0.424329	-0.000002	-3.783157	-0.089647	-5.688084	 5.712365	 0.284002	 89.782130	 78.203920	 180.000000	-32.176480	 30.221020	 69.341040	-16.420510	-0.200196	 14.947430	 13.872620	-3.760601	-1.346144	 6.112037	 4.509576	-0.364401	 4.968462	 1.518543	-9.347576	 5.168945	 0.703820	 2.021906
-0.000573	 0.076742	 1.236258	 0.006473	 0.003318	-0.111631	-6.240610	-12.306570	 179.355600	 0.926612	-32.671900	-2.114274	-18.092620	 81.000880	 12.255930	-2.385833	 28.452760	 0.000004	 6.285894	-14.689740	-178.848400	-0.929207	-32.533910	 2.064404	 14.936420	 78.578610	-9.339923	 2.384658	 28.388730	 0.000004	 0.785222	 3.402102	-0.142802	 1.615718	 1.341522	 0.745973	-4.878381	-1.597043	-0.910665	-91.776160	 78.527470	 180.000000	 71.062160	 45.586620	-58.208380	-8.168520	 0.190271	-0.474679	-29.002270	 2.736036	-4.327843	-2.635965	 4.993658	 6.788941	-5.165319	 0.784187	 3.516649	-5.225038	 0.466231	 0.424329	-0.000002	-3.783157	-0.089647	-4.836562	 6.199039	 0.262039	 89.782160	 78.203870	 179.999900	-41.261750	 32.884360	 64.386090	-12.740140	 0.774229	 14.785610	 16.031930	-3.882744	 0.685995	 6.112037	 4.509576	-0.364401	 4.968462	 1.518543	-9.347576	 5.168945	 0.703820	 2.021906
-0.000512	 0.078768	 1.236751	 0.006785	 0.004799	-0.082275	-6.247439	-12.271950	 179.320300	 0.931830	-32.552580	-2.104592	-17.908180	 80.919530	 12.070080	-2.385833	 28.452760	 0.000004	 6.282716	-14.704690	-178.857200	-0.937715	-32.333950	 2.048543	 14.703940	 78.373660	-9.110285	 2.384658	 28.388730	 0.000004	 0.049819	 3.536292	-0.109425	 1.278462	 0.860537	 0.609865	-3.860855	-1.025669	-0.697415	-91.776230	 78.527470	-180.000000	 71.373370	 45.577020	-58.982060	-8.168297	 0.191111	-0.476829	-29.041540	 2.730820	-4.334198	-2.635965	 4.993658	 6.788941	-5.165319	 0.784187	 3.516649	-5.225038	 0.466231	 0.424329	-0.000002	-3.783157	-0.089647	-3.842690	 6.574793	 0.220788	 89.782110	 78.203870	 180.000000	-47.935250	 35.506340	 61.532590	-9.523459	 1.489439	 13.568240	 18.033640	-3.599931	 2.478276	 6.112037	 4.509576	-0.364401	 4.968462	 1.518543	-9.347576	 5.168945	 0.703820	 2.021906
